#define battery_width 10
#define battery_height 6
static unsigned char battery_bits[] = {
   0xff, 0x01, 0x01, 0x01, 0x3d, 0x02, 0x3d, 0x02, 0x01, 0x01, 0xff, 0x01 };
