#define h2_width 32
#define h2_height 32
static unsigned char h2_bits[] = {
   0x00, 0x00, 0x00, 0x00, 0x00, 0x00, 0x00, 0x00, 0x00, 0x00, 0x00, 0x00,
   0x00, 0x00, 0x00, 0x00, 0x00, 0x05, 0x60, 0x00, 0x80, 0x1f, 0xf8, 0x03,
   0xe0, 0x7f, 0xfc, 0x07, 0xf0, 0x7a, 0x5f, 0x0f, 0x70, 0xe0, 0x07, 0x1e,
   0x38, 0xc0, 0x03, 0x1c, 0x1c, 0x80, 0x01, 0x38, 0x1c, 0x00, 0x00, 0x38,
   0x1c, 0x00, 0x00, 0x38, 0x1c, 0x00, 0x00, 0x38, 0x18, 0x00, 0x00, 0x38,
   0x38, 0x00, 0x00, 0x1c, 0x78, 0x00, 0x00, 0x1c, 0x70, 0x00, 0x00, 0x0e,
   0xe0, 0x00, 0x00, 0x0f, 0xc0, 0x01, 0x80, 0x03, 0xc0, 0x07, 0xc0, 0x03,
   0x00, 0x0f, 0xf0, 0x00, 0x00, 0x1e, 0x78, 0x00, 0x00, 0x3c, 0x38, 0x00,
   0x00, 0x78, 0x1e, 0x00, 0x00, 0xf0, 0x0f, 0x00, 0x00, 0xc0, 0x07, 0x00,
   0x00, 0xc0, 0x03, 0x00, 0x00, 0x00, 0x01, 0x00, 0x00, 0x00, 0x00, 0x00,
   0x00, 0x00, 0x00, 0x00, 0x00, 0x00, 0x00, 0x00 };
